<?xml version="1.0" encoding="UTF-8" standalone="no"?><!DOCTYPE svg PUBLIC "-//W3C//DTD SVG 1.1//EN" "http://www.w3.org/Graphics/SVG/1.1/DTD/svg11.dtd"><svg width="100%" height="100%" viewBox="0 0 1956 287" version="1.1" xmlns="http://www.w3.org/2000/svg" xmlns:xlink="http://www.w3.org/1999/xlink" xml:space="preserve" xmlns:serif="http://www.serif.com/" style="fill-rule:evenodd;clip-rule:evenodd;stroke-linejoin:round;stroke-miterlimit:2;"><path d="M470.318,139.223l-56.592,70.592l61.446,0l-4.854,-70.592Zm-7.688,-36.421l46.012,0l19.321,183.346l-48.263,0l-2.596,-43.654l-89.642,0l-34.725,43.654l-46.017,0l155.908,-183.346Z" style="fill:#ffffff;fill-rule:nonzero;"/><path d="M663.374,134.112c-17.962,0 -32.783,5.075 -44.487,15.217c-11.704,10.146 -21.892,26.804 -30.575,50.008c-7.538,20.117 -9.058,34.3 -4.562,42.525c4.496,8.238 16.05,12.35 34.658,12.35l71.271,0l-11.962,31.933l-73.371,0c-16.175,0 -28.438,-1.238 -36.779,-3.679c-8.342,-2.45 -15.492,-6.592 -21.45,-12.408c-7.767,-7.488 -12.042,-17.233 -12.821,-29.254c-0.792,-12.017 1.946,-26.379 8.204,-43.088c12.146,-32.429 28.996,-56.35 50.583,-71.775c21.575,-15.425 48.967,-23.142 82.175,-23.142l72.108,0l-11.721,31.312l-71.271,0Z" style="fill:#ffffff;fill-rule:nonzero;"/><path d="M832.531,134.732c-15.688,0 -28.833,3.487 -39.438,10.487c-10.604,6.979 -19.017,17.658 -25.246,32.037l119.9,0.125l-11.95,31.929l-120.229,0c-5.883,15.971 -6.371,27.446 -1.467,34.429c4.9,6.979 16.138,10.471 33.7,10.471l71.183,0l-11.954,31.933l-73.283,0c-16.175,0 -28.429,-1.238 -36.758,-3.675c-8.342,-2.454 -15.483,-6.592 -21.438,-12.412c-7.763,-7.488 -12.033,-17.233 -12.812,-29.25c-0.783,-12.021 1.958,-26.383 8.212,-43.092c12.138,-32.429 28.992,-56.35 50.562,-71.775c21.571,-15.425 48.958,-23.142 82.133,-23.142l72.029,0l-11.958,31.933l-71.188,0Z" style="fill:#ffffff;fill-rule:nonzero;"/><path d="M1012.052,134.112c-17.962,0 -32.783,5.075 -44.492,15.217c-11.7,10.146 -21.887,26.804 -30.575,50.008c-7.533,20.117 -9.054,34.3 -4.563,42.525c4.496,8.238 16.046,12.35 34.658,12.35l71.275,0l-11.962,31.933l-73.371,0c-16.183,0 -28.442,-1.238 -36.783,-3.679c-8.342,-2.45 -15.487,-6.592 -21.442,-12.408c-7.771,-7.488 -12.05,-17.233 -12.829,-29.254c-0.792,-12.017 1.946,-26.379 8.204,-43.088c12.137,-32.429 29,-56.35 50.579,-71.775c21.583,-15.425 48.975,-23.142 82.175,-23.142l72.108,0l-11.717,31.312l-71.267,0Z" style="fill:#ffffff;fill-rule:nonzero;"/><path d="M1192.488,135.487l-53.167,0l-17.271,46.142l53.162,0c14.408,0 25.067,-1.746 31.979,-5.233c6.925,-3.496 11.975,-9.496 15.158,-17.967c3.138,-8.404 2.625,-14.333 -1.567,-17.771c-4.175,-3.454 -13.617,-5.171 -28.296,-5.171m-84.283,-32.687l106.767,0c24.875,0 41.446,4.45 49.704,13.346c8.283,8.896 8.85,22.825 1.758,41.779c-5.262,14.054 -13.133,25.533 -23.617,34.429c-10.483,8.904 -22.946,14.621 -37.379,17.2l22.817,76.592l-48.821,0l-18.458,-72.096l-51.062,0l-27.004,72.096l-43.346,0l68.642,-183.346Z" style="fill:#ffffff;fill-rule:nonzero;"/><path d="M1378.38,139.223l-56.592,70.592l61.442,0l-4.85,-70.592Zm-7.7,-36.421l46.029,0l19.317,183.346l-48.267,0l-2.6,-43.654l-89.638,0l-34.725,43.654l-46.013,0l155.896,-183.346Z" style="fill:#ffffff;fill-rule:nonzero;"/><path d="M1460.672,201.824c8.754,-23.358 16.754,-40.508 24.029,-51.45c7.271,-10.921 16.033,-19.838 26.287,-26.737c10.504,-7.067 22.942,-12.304 37.312,-15.717c14.371,-3.417 31.329,-5.121 50.871,-5.121l66.075,0l-11.946,31.933l-69.733,0c-18.8,0 -33.779,3.517 -44.975,10.546c-11.196,7.017 -19.854,18.342 -25.979,33.975l123.967,0.125l-11.858,31.683l-124.021,0l-28.1,75.083l-43.5,0l31.571,-84.321Z" style="fill:#ffffff;fill-rule:nonzero;"/><path d="M1715.93,134.985l-66.638,0l11.954,-31.929l178.458,0l-11.967,31.929l-66.908,0l-56.6,151.163l-44.896,0l56.596,-151.163Z" style="fill:#ffffff;fill-rule:nonzero;"/><path d="M432.775,77.622l1378.842,0c36.338,0 65.896,29.554 65.896,65.892c0,36.329 -29.558,65.9 -65.896,65.9l-28.708,77.517c79.083,0 172.133,-38.225 172.133,-143.417c0,-79.088 -64.354,-143.417 -143.425,-143.417l-1418.412,0c-0,0 37.633,4.275 44.329,40.433c4.121,22.267 -4.758,37.092 -4.758,37.092" style="fill:#dc143c;fill-rule:nonzero;"/><path d="M281.742,51.082l-97.954,0l-31.833,71.992l97.954,0c26.533,0 46.179,-2.717 58.925,-8.167c12.746,-5.446 22.042,-14.792 27.896,-28.025c5.792,-13.1 4.833,-22.346 -2.858,-27.733c-7.704,-5.371 -25.079,-8.067 -52.129,-8.067m-110.567,-50.987l151.975,0c45.829,0 76.363,6.937 91.588,20.825c15.225,13.879 16.308,35.608 3.233,65.188c-9.692,21.929 -24.204,39.829 -43.521,53.708c-19.317,13.879 -42.271,22.838 -68.863,26.846l42.038,119.487l-89.942,0l-34.021,-112.475l-94.075,0l-49.725,112.475l-79.863,0l105.242,-238.058c0,0 8.837,-19.621 24.062,-34.837c15.221,-15.225 41.871,-13.158 41.871,-13.158" style="fill:#ffffff;fill-rule:nonzero;"/></svg>
